:SAMPLES-PER-SECOND 30
:FRAME-RANGE 1-744
:FULLY-SPECIFIED
:DEGREES
582
root  -111.608 38.4298 38.636 -176.76 -1.67914 -178.141
RightUpLeg  -20.4622 -0.631924 -4.95015
RightLeg  26.9161 -1.24298 -0.901921
RightFoot  -10.5459 -0.125568 7.74335
RightToes  -5.28216e-011 1.2921e-014 -6.02303e-014
Spine  -5.26142 -4.90473 -7.53153
Spine1  8.05246 -4.85612 -0.527542
HEad  -2.22968 -44.785 11.1826
LeftShoulder1  1.33217 -1.64997 -20.7188
LeftArm  -2.85973 -2.89908 -45.2996
LeftForeArm  26.836 -2.89956 -11.8875
LeftHand  -0.0636406 3.86431 3.46701
RightShoulder  1.18897 0.343453 26.4895
RightArm  -20.7104 -1.74395 56.3635
RightForeArm  67.1018 -3.3671 6.6051
RightHand  0.115564 -6.2742 -17.098
LeftUpLeg  -6.09805 5.81135 1.34279
LeftLeg  14.1111 5.31069 1.55563
LeftFoot  -10.7185 0.0710568 -1.23851
LeftToes  -9.4837e-011 -7.11147e-011 -1.07582e-011
583
root  -111.517 38.4383 38.2415 -176.489 -0.333252 -177.868
RightUpLeg  -21.43 -1.74216 -5.07075
RightLeg  24.6318 -0.873699 -0.648549
RightFoot  -9.96741 -0.160304 7.70208
RightToes  -5.28216e-011 1.2921e-014 -6.02303e-014
Spine  -5.04237 -5.00577 -6.99987
Spine1  7.95911 -4.88333 -0.69642
HEad  -3.18661 -43.9242 11.5358
LeftShoulder1  1.3957 -1.78791 -21.274
LeftArm  -3.33617 -0.64033 -46.0505
LeftForeArm  26.743 -2.27781 -11.8769
LeftHand  -0.0586327 3.94248 3.2031
RightShoulder  1.22828 0.499551 26.1817
RightArm  -18.3369 0.134061 57.2556
RightForeArm  65.666 0.518624 8.03474
RightHand  0.105138 -6.21018 -16.9649
LeftUpLeg  -5.43986 5.82815 1.63519
LeftLeg  13.8597 6.62465 2.11411
LeftFoot  -11.1583 0.0701251 -1.99771
LeftToes  -9.4837e-011 -7.11147e-011 -1.07582e-011
584
root  -111.396 38.4477 37.8096 -176.228 0.750656 -177.618
RightUpLeg  -21.946 -3.08236 -5.24684
RightLeg  21.3523 -1.1856 -0.71629
RightFoot  -9.09963 -0.203235 7.21336
RightToes  -5.28216e-011 1.2921e-014 -6.02303e-014
Spine  -4.79903 -5.01452 -6.53521
Spine1  7.70024 -4.89937 -0.511417
HEad  -3.73846 -43.4579 11.4884
LeftShoulder1  1.48188 -1.96949 -22.0103
LeftArm  -4.09311 1.26766 -46.9802
LeftForeArm  26.7636 -1.32669 -11.7543
LeftHand  -0.0544981 3.94826 2.85658
RightShoulder  1.20498 0.457107 25.911
RightArm  -16.4212 1.5934 57.7976
RightForeArm  64.4431 4.13212 9.1167
RightHand  0.0624613 -5.92767 -16.6376
LeftUpLeg  -4.64143 5.84472 1.96242
LeftLeg  13.4566 7.73554 2.56032
LeftFoot  -11.5589 0.0646974 -2.43429
LeftToes  -9.4837e-011 -7.11147e-011 -1.07582e-011
585
root  -111.237 38.4597 37.3459 -175.944 1.73029 -177.52
RightUpLeg  -22.1365 -5.03236 -5.38113
RightLeg  17.2722 -1.98839 -0.894122
RightFoot  -7.72483 -0.265221 6.72731
RightToes  -5.28216e-011 1.2921e-014 -6.02303e-014
Spine  -4.90853 -4.99698 -5.90406
Spine1  7.81851 -4.79698 -0.688764
HEad  -3.86963 -43.2456 11.2759
LeftShoulder1  1.50698 -1.99844 -22.3501
LeftArm  -4.74702 2.9043 -48.2176
LeftForeArm  27.0484 -0.683683 -11.5656
LeftHand  -0.0519892 4.10994 2.92066
RightShoulder  1.21245 0.526732 25.5087
RightArm  -14.478 2.22 58.8881
RightForeArm  62.6027 7.84665 9.36693
RightHand  0.0610269 -5.91744 -16.6397
LeftUpLeg  -3.70768 5.80312 2.19613
LeftLeg  12.8243 8.78521 2.87722
LeftFoot  -11.8517 0.056893 -3.17782
LeftToes  -9.4837e-011 -7.11147e-011 -1.07582e-011
586
root  -111.031 38.4548 36.841 -175.621 2.69826 -177.508
RightUpLeg  -22.0462 -7.43028 -5.19857
RightLeg  12.7103 -3.77563 -1.12421
RightFoot  -6.07285 -0.33654 6.40845
RightToes  -5.28216e-011 1.2921e-014 -6.02303e-014
Spine  -5.02074 -4.84237 -5.15175
Spine1  7.69278 -4.53771 -0.969157
HEad  -3.834 -43.0591 11.2197
LeftShoulder1  1.51268 -1.9619 -22.6735
LeftArm  -4.85501 4.57879 -49.3215
LeftForeArm  27.6023 -0.884108 -11.5954
LeftHand  -0.0475131 4.21969 2.67323
RightShoulder  1.23448 0.613174 25.3714
RightArm  -10.6177 2.80141 59.2601
RightForeArm  58.005 10.7677 9.11686
RightHand  0.125145 -6.326 -17.3159
LeftUpLeg  -2.75991 5.69021 2.35492
LeftLeg  12.2079 9.85882 3.22913
LeftFoot  -12.1378 0.0445037 -4.06077
LeftToes  -9.4837e-011 -7.11147e-011 -1.07582e-011
587
root  -110.762 38.4308 36.2993 -175.371 3.55275 -177.599
RightUpLeg  -21.5069 -7.86686 -5.73702
RightLeg  8.16214 -8.04005 -0.682101
RightFoot  -4.39533 -0.396034 6.02565
RightToes  -5.28216e-011 1.2921e-014 -6.02303e-014
Spine  -5.34193 -4.69204 -4.41104
Spine1  7.85234 -4.25421 -1.44274
HEad  -3.35424 -42.9517 10.8773
LeftShoulder1  1.48274 -1.84182 -22.7664
LeftArm  -5.31179 5.90644 -50.418
LeftForeArm  28.3117 -1.0921 -11.4994
LeftHand  -0.0477977 4.22506 2.65568
RightShoulder  1.25824 0.696954 25.3075
RightArm  -8.66619 3.17805 59.7229
RightForeArm  56.0145 12.2695 8.69603
RightHand  0.0411704 -5.76955 -16.8815
LeftUpLeg  -1.68838 5.69296 2.56783
LeftLeg  11.6365 10.6672 3.39954
LeftFoot  -12.4837 0.02633 -4.85799
LeftToes  -9.4837e-011 -7.11147e-011 -1.07582e-011
588
root  -110.424 38.3657 35.7185 -175.092 4.38272 -177.724
RightUpLeg  -20.8843 -6.39258 -6.66915
RightLeg  4.28269 -13.916 0.117434
RightFoot  -3.30385 -0.401747 5.39288
RightToes  -5.28216e-011 1.2921e-014 -6.02303e-014
Spine  -5.65147 -4.48381 -3.72673
Spine1  7.79456 -3.95046 -1.82212
HEad  -2.58809 -42.5606 10.27
LeftShoulder1  1.45078 -1.6848 -23.0469
LeftArm  -5.68575 7.33317 -51.1105
LeftForeArm  28.7567 -1.86129 -11.4192
LeftHand  -0.0499483 4.15974 2.72412
RightShoulder  1.30507 0.839854 25.3645
RightArm  -9.05636 3.34139 59.7709
RightForeArm  56.0833 12.3077 8.60907
RightHand  0.025752 -5.66042 -16.9535
LeftUpLeg  -0.720133 5.86237 2.91709
LeftLeg  11.3966 11.2791 3.47402
LeftFoot  -13.0934 -0.0101371 -5.787
LeftToes  -9.4837e-011 -7.11147e-011 -1.07582e-011
589
root  -110.008 38.2497 35.0729 -174.846 4.98471 -178.075
RightUpLeg  -20.2193 -5.3064 -7.24725
RightLeg  1.40092 -18.3125 0.737705
RightFoot  -3.15444 -0.356634 4.67929
RightToes  -5.28216e-011 1.2921e-014 -6.02303e-014
Spine  -6.20881 -4.23555 -3.47081
Spine1  7.88355 -3.61835 -2.1085
HEad  -1.17609 -42.0603 9.34112
LeftShoulder1  1.49721 -1.82897 -23.1407
LeftArm  -5.58403 8.31661 -51.6366
LeftForeArm  28.7584 -2.34655 -11.4747
LeftHand  -0.0511905 4.13681 2.89447
RightShoulder  1.25944 0.666068 25.5948
RightArm  -12.692 3.33074 59.7476
RightForeArm  59.2261 10.7709 8.70438
RightHand  0.00984739 -5.54234 -17.4317
LeftUpLeg  0.306564 5.91682 3.12727
LeftLeg  11.2401 11.6893 3.61604
LeftFoot  -13.7409 -0.0640597 -6.97929
LeftToes  -9.4837e-011 -7.11147e-011 -1.07582e-011
590
root  -109.533 38.1354 34.3956 -174.728 5.34341 -178.468
RightUpLeg  -19.6083 -5.15225 -7.42972
RightLeg  0.337706 -19.9924 1.0719
RightFoot  -2.78989 -0.34938 4.41554
RightToes  -5.28216e-011 1.2921e-014 -6.02303e-014
Spine  -6.65669 -4.09179 -3.30046
Spine1  8.0092 -3.50566 -2.06683
HEad  0.620665 -40.7698 7.90641
LeftShoulder1  1.46531 -1.70751 -23.2141
LeftArm  -5.39541 8.93014 -52.1321
LeftForeArm  29.0574 -2.61073 -11.5584
LeftHand  -0.0511999 4.15444 3.09904
RightShoulder  1.27273 0.723297 25.4714
RightArm  -15.8837 2.83236 59.7068
RightForeArm  61.5383 9.03417 8.66091
RightHand  0.0332057 -5.69249 -17.7224
LeftUpLeg  1.6094 5.937 3.395
LeftLeg  10.8712 11.7957 3.69066
LeftFoot  -14.3383 -0.125944 -8.08361
LeftToes  -9.4837e-011 -7.11147e-011 -1.07582e-011
